<svg  viewBox="0 0 32 32" fill="none" xmlns="http://www.w3.org/2000/svg">
<path d="M28 14.4437V26C28 26.5304 27.7893 27.0391 27.4142 27.4142C27.0391 27.7893 26.5304 28 26 28H21C20.4696 28 19.9609 27.7893 19.5858 27.4142C19.2107 27.0391 19 26.5304 19 26V21C19 20.7348 18.8946 20.4804 18.7071 20.2929C18.5196 20.1054 18.2652 20 18 20H14C13.7348 20 13.4804 20.1054 13.2929 20.2929C13.1054 20.4804 13 20.7348 13 21V26C13 26.5304 12.7893 27.0391 12.4142 27.4142C12.0391 27.7893 11.5304 28 11 28H6C5.46957 28 4.96086 27.7893 4.58579 27.4142C4.21071 27.0391 4 26.5304 4 26V14.4437C3.99996 14.1669 4.05737 13.8931 4.16861 13.6397C4.27985 13.3862 4.4425 13.1586 4.64625 12.9712L14.6462 3.53625L14.66 3.5225C15.0282 3.18766 15.508 3.00212 16.0056 3.00212C16.5033 3.00212 16.9831 3.18766 17.3512 3.5225C17.3555 3.52739 17.3601 3.53198 17.365 3.53625L27.365 12.9712C27.5667 13.1596 27.7273 13.3877 27.8365 13.6411C27.9458 13.8945 28.0015 14.1678 28 14.4437Z" fill="currentColor"/>
</svg>
