<svg width="68" height="68" viewBox="0 0 75 75" fill="none" xmlns="http://www.w3.org/2000/svg">
<path d="M40.3942 15.7168C42.7076 15.7168 44.7996 16.0381 46.6703 16.6807C48.541 17.3233 50.0619 18.1944 51.2329 19.294C52.4038 20.3793 53.2964 21.6145 53.9104 22.9997C54.5245 24.3706 54.8315 25.8201 54.8315 27.3481C54.8315 28.7761 54.553 30.1684 53.9961 31.525C53.4534 32.8674 52.6466 34.124 51.5756 35.295C50.5189 36.4517 49.1265 37.4585 47.3986 38.3153C45.685 39.1578 43.7429 39.7433 41.5723 40.0718C41.5152 41.5712 41.4795 42.528 41.4652 42.9421C41.3938 44.6129 41.3581 45.7482 41.3581 46.3479C41.3295 47.576 41.1653 48.8256 40.8654 50.0965C40.5798 51.3674 40.1514 52.617 39.5802 53.8451C39.009 55.0589 38.3307 56.137 37.5452 57.0795C36.7741 58.022 35.8316 58.7789 34.7178 59.3501C33.6039 59.9356 32.4115 60.2283 31.1406 60.2283C29.7982 60.2283 28.5772 59.7928 27.4777 58.9217C26.3781 58.0506 25.4856 56.9296 24.8001 55.5587C24.1147 54.1878 23.5363 52.6098 23.0651 50.8248C22.6081 49.0398 22.2797 47.2904 22.0797 45.5768C21.8941 43.8489 21.8013 42.1495 21.8013 40.4788C21.8013 37.7941 22.094 35.2093 22.6795 32.7246C23.265 30.2255 24.1075 27.955 25.2071 25.9129C26.321 23.8565 27.6276 22.0644 29.127 20.5364C30.6265 19.0084 32.3401 17.8231 34.2679 16.9806C36.21 16.1381 38.2521 15.7168 40.3942 15.7168ZM27.5419 39.9218C27.5419 45.177 27.8704 49.0112 28.5273 51.4246C29.2127 53.9522 30.2409 55.216 31.6118 55.216C32.2116 55.216 32.7542 55.0232 33.2398 54.6376C33.7253 54.2521 34.1251 53.7594 34.4393 53.1596C34.7535 52.5598 35.0248 51.8316 35.2533 50.9747C35.496 50.1036 35.6745 49.2682 35.7888 48.4686C35.9173 47.6546 36.0173 46.7621 36.0887 45.791C36.1743 44.8057 36.2243 43.9917 36.2386 43.3491C36.2529 42.7065 36.26 42.0353 36.26 41.3356V40.3288C34.6892 39.7005 33.5396 39.1578 32.8113 38.7009C32.0831 38.2439 31.6189 37.8155 31.419 37.4156C31.2334 37.0158 31.1406 36.4589 31.1406 35.7448C31.1406 35.3164 31.1548 34.9737 31.1834 34.7167C31.212 34.4596 31.2976 34.224 31.4404 34.0098C31.5832 33.7813 31.7903 33.6671 32.0616 33.6671C32.233 33.6671 32.5186 33.7742 32.9184 33.9884C33.6753 34.4025 34.4322 34.7452 35.189 35.0166C35.5317 35.1308 35.8173 35.2165 36.0458 35.2736C36.0458 30.0327 37.174 26.9411 39.4302 25.9986C39.8729 25.8129 40.3656 25.7201 40.9082 25.7201C41.5366 25.7201 42.0792 25.8558 42.5362 26.1271C42.9932 26.3984 43.2216 26.8554 43.2216 27.498C43.2216 27.5694 43.2145 27.6408 43.2002 27.7122C43.2002 27.7693 43.2002 27.8122 43.2002 27.8407L41.8936 33.3458L41.7008 35.038C44.3569 34.6238 46.3704 33.7528 47.7413 32.4247C49.1122 31.0966 49.7977 29.5686 49.7977 27.8407C49.7977 27.1696 49.7049 26.5198 49.5192 25.8915C49.3336 25.2489 48.998 24.6134 48.5125 23.9851C48.0412 23.3425 47.4415 22.7927 46.7132 22.3357C45.9992 21.8644 45.0567 21.486 43.8857 21.2004C42.7147 20.9005 41.3866 20.7506 39.9015 20.7506C38.2307 20.7506 36.6956 21.1433 35.2961 21.9287C33.9109 22.7141 32.7471 23.7494 31.8046 25.0347C30.8621 26.3056 30.0624 27.7836 29.4055 29.4687C28.7486 31.1537 28.2702 32.8745 27.9703 34.631C27.6847 36.3875 27.5419 38.1511 27.5419 39.9218Z" fill="white"/>
<circle cx="37.4684" cy="37.6501" r="34.4684" stroke="white" stroke-width="4.70024"/>
</svg>
