<svg width="781" height="296" viewBox="0 0 781 296" fill="none" xmlns="http://www.w3.org/2000/svg">
<path d="M4.15057 3.27273V12H2.82955V4.59375H2.77841L0.690341 5.95739V4.69602L2.8679 3.27273H4.15057ZM9.60972 12.1449C8.93642 12.142 8.36114 11.9645 7.88386 11.6122C7.40659 11.2599 7.04153 10.7472 6.78869 10.0739C6.53585 9.40057 6.40943 8.58949 6.40943 7.64062C6.40943 6.6946 6.53585 5.88636 6.78869 5.21591C7.04438 4.54545 7.41085 4.03409 7.88812 3.68182C8.36824 3.32955 8.9421 3.15341 9.60972 3.15341C10.2773 3.15341 10.8498 3.33097 11.327 3.68608C11.8043 4.03835 12.1694 4.54972 12.4222 5.22017C12.6779 5.88778 12.8057 6.6946 12.8057 7.64062C12.8057 8.59233 12.6793 9.40483 12.4265 10.0781C12.1736 10.7486 11.8086 11.2614 11.3313 11.6165C10.854 11.9688 10.2802 12.1449 9.60972 12.1449ZM9.60972 11.0071C10.2006 11.0071 10.6623 10.7188 10.9947 10.142C11.3299 9.56534 11.4975 8.73153 11.4975 7.64062C11.4975 6.91619 11.4208 6.30398 11.2674 5.80398C11.1168 5.30114 10.8995 4.92045 10.6154 4.66193C10.3341 4.40057 9.99892 4.26989 9.60972 4.26989C9.02165 4.26989 8.56 4.55966 8.22477 5.1392C7.88955 5.71875 7.72051 6.55256 7.71767 7.64062C7.71767 8.3679 7.79295 8.98295 7.94352 9.4858C8.09693 9.9858 8.31426 10.3651 8.59551 10.6236C8.87676 10.8793 9.21483 11.0071 9.60972 11.0071ZM17.4158 12.1449C16.7425 12.142 16.1672 11.9645 15.69 11.6122C15.2127 11.2599 14.8476 10.7472 14.5948 10.0739C14.3419 9.40057 14.2155 8.58949 14.2155 7.64062C14.2155 6.6946 14.3419 5.88636 14.5948 5.21591C14.8505 4.54545 15.2169 4.03409 15.6942 3.68182C16.1743 3.32955 16.7482 3.15341 17.4158 3.15341C18.0834 3.15341 18.6559 3.33097 19.1331 3.68608C19.6104 4.03835 19.9755 4.54972 20.2283 5.22017C20.484 5.88778 20.6118 6.6946 20.6118 7.64062C20.6118 8.59233 20.4854 9.40483 20.2326 10.0781C19.9797 10.7486 19.6147 11.2614 19.1374 11.6165C18.6601 11.9688 18.0863 12.1449 17.4158 12.1449ZM17.4158 11.0071C18.0067 11.0071 18.4684 10.7188 18.8008 10.142C19.136 9.56534 19.3036 8.73153 19.3036 7.64062C19.3036 6.91619 19.2269 6.30398 19.0735 5.80398C18.9229 5.30114 18.7056 4.92045 18.4215 4.66193C18.1402 4.40057 17.805 4.26989 17.4158 4.26989C16.8277 4.26989 16.3661 4.55966 16.0309 5.1392C15.6956 5.71875 15.5266 6.55256 15.5238 7.64062C15.5238 8.3679 15.599 8.98295 15.7496 9.4858C15.903 9.9858 16.1204 10.3651 16.4016 10.6236C16.6829 10.8793 17.0209 11.0071 17.4158 11.0071Z" fill="#9CA3AF"/>
<path d="M3.78835 62.9191C3.17756 62.9191 2.63778 62.814 2.16903 62.6038C1.70313 62.3936 1.33807 62.1038 1.07386 61.7345C0.809659 61.3651 0.678977 60.9447 0.681818 60.4731C0.678977 60.1038 0.754261 59.7643 0.90767 59.4546C1.06392 59.1421 1.27557 58.8822 1.54261 58.6748C1.80966 58.4646 2.10795 58.3311 2.4375 58.2742V58.2231C2.00284 58.118 1.65483 57.885 1.39347 57.5242C1.1321 57.1634 1.00284 56.7487 1.00568 56.2799C1.00284 55.8339 1.12074 55.4362 1.35938 55.0867C1.60085 54.7345 1.93182 54.4575 2.35227 54.2558C2.77273 54.0541 3.25142 53.9532 3.78835 53.9532C4.3196 53.9532 4.79403 54.0555 5.21165 54.26C5.6321 54.4617 5.96307 54.7387 6.20455 55.091C6.44602 55.4404 6.56818 55.8367 6.57102 56.2799C6.56818 56.7487 6.43466 57.1634 6.17045 57.5242C5.90625 57.885 5.5625 58.118 5.1392 58.2231V58.2742C5.46591 58.3311 5.75994 58.4646 6.02131 58.6748C6.28551 58.8822 6.49574 59.1421 6.65199 59.4546C6.81108 59.7643 6.89205 60.1038 6.89489 60.4731C6.89205 60.9447 6.75852 61.3651 6.49432 61.7345C6.23011 62.1038 5.86364 62.3936 5.39489 62.6038C4.92898 62.814 4.39347 62.9191 3.78835 62.9191ZM3.78835 61.841C4.14915 61.841 4.46165 61.7813 4.72585 61.662C4.99006 61.5399 5.1946 61.3708 5.33949 61.1549C5.48438 60.9362 5.55824 60.6805 5.56108 60.3879C5.55824 60.0839 5.47869 59.8154 5.32244 59.5825C5.16903 59.3495 4.96023 59.1663 4.69602 59.0328C4.43182 58.8992 4.12926 58.8325 3.78835 58.8325C3.4446 58.8325 3.1392 58.8992 2.87216 59.0328C2.60511 59.1663 2.39489 59.3495 2.24148 59.5825C2.08807 59.8154 2.01278 60.0839 2.01562 60.3879C2.01278 60.6805 2.08239 60.9362 2.22443 61.1549C2.36932 61.3708 2.57528 61.5399 2.84233 61.662C3.10938 61.7813 3.42472 61.841 3.78835 61.841ZM3.78835 57.7799C4.07813 57.7799 4.33523 57.7217 4.55966 57.6052C4.78409 57.4887 4.96023 57.3268 5.08807 57.1194C5.21875 56.912 5.28551 56.6691 5.28835 56.3907C5.28551 56.118 5.22017 55.8794 5.09233 55.6748C4.96733 55.4703 4.79261 55.3126 4.56818 55.2018C4.34375 55.0882 4.08381 55.0313 3.78835 55.0313C3.48722 55.0313 3.22301 55.0882 2.99574 55.2018C2.77131 55.3126 2.59659 55.4703 2.47159 55.6748C2.34659 55.8794 2.28551 56.118 2.28835 56.3907C2.28551 56.6691 2.34801 56.912 2.47585 57.1194C2.60369 57.3268 2.77983 57.4887 3.00426 57.6052C3.23153 57.7217 3.4929 57.7799 3.78835 57.7799ZM11.5199 62.9447C10.8466 62.9419 10.2713 62.7643 9.79402 62.412C9.31675 62.0597 8.95169 61.547 8.69885 60.8737C8.44601 60.2004 8.31959 59.3893 8.31959 58.4404C8.31959 57.4944 8.44601 56.6862 8.69885 56.0157C8.95453 55.3453 9.32101 54.8339 9.79828 54.4816C10.2784 54.1293 10.8523 53.9532 11.5199 53.9532C12.1875 53.9532 12.7599 54.1308 13.2372 54.4859C13.7145 54.8382 14.0795 55.3495 14.3324 56.02C14.5881 56.6876 14.7159 57.4944 14.7159 58.4404C14.7159 59.3921 14.5895 60.2046 14.3366 60.8779C14.0838 61.5484 13.7187 62.0612 13.2415 62.4163C12.7642 62.7686 12.1903 62.9447 11.5199 62.9447ZM11.5199 61.8069C12.1108 61.8069 12.5724 61.5186 12.9048 60.9419C13.24 60.3651 13.4077 59.5313 13.4077 58.4404C13.4077 57.716 13.331 57.1038 13.1775 56.6038C13.027 56.1009 12.8096 55.7203 12.5256 55.4617C12.2443 55.2004 11.9091 55.0697 11.5199 55.0697C10.9318 55.0697 10.4702 55.3595 10.1349 55.939C9.7997 56.5186 9.63067 57.3524 9.62783 58.4404C9.62783 59.1677 9.70311 59.7828 9.85368 60.2856C10.0071 60.7856 10.2244 61.1649 10.5057 61.4234C10.7869 61.6791 11.125 61.8069 11.5199 61.8069Z" fill="#9CA3AF"/>
<path d="M3.88636 113.719C3.49716 113.713 3.11364 113.642 2.7358 113.506C2.3608 113.369 2.01989 113.142 1.71307 112.824C1.40625 112.506 1.16051 112.078 0.975852 111.541C0.794034 111.004 0.703125 110.334 0.703125 109.53C0.703125 108.769 0.778409 108.093 0.928977 107.502C1.08239 106.911 1.30256 106.412 1.58949 106.006C1.87642 105.597 2.22301 105.286 2.62926 105.073C3.03551 104.86 3.49148 104.753 3.99716 104.753C4.51705 104.753 4.97869 104.855 5.3821 105.06C5.78551 105.264 6.11222 105.547 6.36222 105.908C6.61506 106.269 6.77557 106.679 6.84375 107.139H5.54403C5.45597 106.776 5.28125 106.479 5.01989 106.249C4.75852 106.019 4.41761 105.904 3.99716 105.904C3.35795 105.904 2.85938 106.182 2.50142 106.739C2.14631 107.296 1.96733 108.07 1.96449 109.061H2.02841C2.17898 108.814 2.36364 108.604 2.58239 108.431C2.80398 108.254 3.05114 108.119 3.32386 108.026C3.59943 107.929 3.8892 107.881 4.19318 107.881C4.69886 107.881 5.15625 108.004 5.56534 108.252C5.97727 108.496 6.3054 108.834 6.54972 109.266C6.79403 109.698 6.91619 110.192 6.91619 110.749C6.91619 111.306 6.78977 111.81 6.53693 112.262C6.28693 112.713 5.93466 113.071 5.48011 113.335C5.02557 113.597 4.49432 113.725 3.88636 113.719ZM3.8821 112.611C4.21733 112.611 4.51705 112.529 4.78125 112.364C5.04545 112.199 5.25426 111.977 5.40767 111.699C5.56108 111.421 5.63778 111.11 5.63778 110.766C5.63778 110.431 5.5625 110.125 5.41193 109.85C5.2642 109.574 5.05966 109.355 4.7983 109.193C4.53977 109.031 4.24432 108.95 3.91193 108.95C3.65909 108.95 3.42472 108.999 3.20881 109.095C2.99574 109.192 2.80824 109.325 2.64631 109.496C2.48438 109.666 2.35653 109.862 2.26278 110.084C2.17188 110.303 2.12642 110.534 2.12642 110.779C2.12642 111.105 2.2017 111.408 2.35227 111.686C2.50568 111.965 2.71449 112.189 2.97869 112.36C3.24574 112.527 3.54688 112.611 3.8821 112.611ZM11.5667 113.744C10.8935 113.742 10.3182 113.564 9.84089 113.212C9.36362 112.86 8.99857 112.347 8.74572 111.673C8.49288 111 8.36646 110.189 8.36646 109.24C8.36646 108.294 8.49288 107.486 8.74572 106.816C9.00141 106.145 9.36788 105.634 9.84516 105.281C10.3253 104.929 10.8991 104.753 11.5667 104.753C12.2344 104.753 12.8068 104.931 13.2841 105.286C13.7613 105.638 14.1264 106.149 14.3792 106.82C14.6349 107.487 14.7628 108.294 14.7628 109.24C14.7628 110.192 14.6363 111.004 14.3835 111.678C14.1307 112.348 13.7656 112.861 13.2883 113.216C12.8111 113.568 12.2372 113.744 11.5667 113.744ZM11.5667 112.607C12.1577 112.607 12.6193 112.318 12.9517 111.742C13.2869 111.165 13.4545 110.331 13.4545 109.24C13.4545 108.516 13.3778 107.904 13.2244 107.404C13.0738 106.901 12.8565 106.52 12.5724 106.262C12.2912 106 11.956 105.869 11.5667 105.869C10.9787 105.869 10.517 106.159 10.1818 106.739C9.84658 107.318 9.67754 108.152 9.6747 109.24C9.6747 109.968 9.74999 110.583 9.90055 111.085C10.054 111.585 10.2713 111.965 10.5525 112.223C10.8338 112.479 11.1719 112.607 11.5667 112.607Z" fill="#9CA3AF"/>
<path d="M0.65625 162.696V161.631L4.42756 155.673H5.26705V157.241H4.73438L2.03693 161.511V161.579H7.20597V162.696H0.65625ZM4.79403 164.4V162.372L4.80256 161.886V155.673H6.05114V164.4H4.79403ZM11.7894 164.545C11.1161 164.542 10.5408 164.365 10.0636 164.013C9.58628 163.66 9.22122 163.148 8.96838 162.474C8.71554 161.801 8.58912 160.99 8.58912 160.041C8.58912 159.095 8.71554 158.287 8.96838 157.616C9.22406 156.946 9.59054 156.434 10.0678 156.082C10.5479 155.73 11.1218 155.554 11.7894 155.554C12.457 155.554 13.0295 155.731 13.5067 156.086C13.984 156.439 14.3491 156.95 14.6019 157.621C14.8576 158.288 14.9854 159.095 14.9854 160.041C14.9854 160.993 14.859 161.805 14.6062 162.479C14.3533 163.149 13.9883 163.662 13.511 164.017C13.0337 164.369 12.4599 164.545 11.7894 164.545ZM11.7894 163.407C12.3803 163.407 12.842 163.119 13.1743 162.542C13.5096 161.966 13.6772 161.132 13.6772 160.041C13.6772 159.317 13.6005 158.704 13.4471 158.204C13.2965 157.702 13.0792 157.321 12.7951 157.062C12.5138 156.801 12.1786 156.67 11.7894 156.67C11.2013 156.67 10.7397 156.96 10.4045 157.54C10.0692 158.119 9.9002 158.953 9.89736 160.041C9.89736 160.768 9.97264 161.383 10.1232 161.886C10.2766 162.386 10.4939 162.765 10.7752 163.024C11.0564 163.28 11.3945 163.407 11.7894 163.407Z" fill="#9CA3AF"/>
<path d="M0.839489 215.2V214.246L3.79261 211.186C4.10795 210.854 4.3679 210.562 4.57244 210.312C4.77983 210.06 4.93466 209.82 5.03693 209.592C5.1392 209.365 5.19034 209.123 5.19034 208.868C5.19034 208.578 5.12216 208.328 4.9858 208.118C4.84943 207.905 4.66335 207.741 4.42756 207.628C4.19176 207.511 3.92614 207.453 3.63068 207.453C3.31818 207.453 3.04545 207.517 2.8125 207.645C2.57955 207.773 2.40057 207.953 2.27557 208.186C2.15057 208.419 2.08807 208.692 2.08807 209.004H0.830966C0.830966 208.473 0.953125 208.008 1.19744 207.611C1.44176 207.213 1.77699 206.905 2.20312 206.686C2.62926 206.464 3.11364 206.354 3.65625 206.354C4.20455 206.354 4.6875 206.463 5.10511 206.682C5.52557 206.898 5.85369 207.193 6.08949 207.568C6.32528 207.94 6.44318 208.361 6.44318 208.829C6.44318 209.153 6.3821 209.47 6.25994 209.78C6.14063 210.089 5.93182 210.435 5.63352 210.815C5.33523 211.193 4.92045 211.652 4.3892 212.192L2.65483 214.007V214.071H6.58381V215.2H0.839489ZM11.2972 215.345C10.6239 215.342 10.0486 215.165 9.57136 214.812C9.09409 214.46 8.72903 213.947 8.47619 213.274C8.22335 212.601 8.09693 211.79 8.09693 210.841C8.09693 209.895 8.22335 209.087 8.47619 208.416C8.73188 207.746 9.09835 207.234 9.57562 206.882C10.0557 206.53 10.6296 206.354 11.2972 206.354C11.9648 206.354 12.5373 206.531 13.0145 206.886C13.4918 207.239 13.8569 207.75 14.1097 208.42C14.3654 209.088 14.4932 209.895 14.4932 210.841C14.4932 211.793 14.3668 212.605 14.114 213.278C13.8611 213.949 13.4961 214.462 13.0188 214.817C12.5415 215.169 11.9677 215.345 11.2972 215.345ZM11.2972 214.207C11.8881 214.207 12.3498 213.919 12.6822 213.342C13.0174 212.766 13.185 211.932 13.185 210.841C13.185 210.116 13.1083 209.504 12.9549 209.004C12.8043 208.501 12.587 208.121 12.3029 207.862C12.0216 207.601 11.6864 207.47 11.2972 207.47C10.7091 207.47 10.2475 207.76 9.91227 208.339C9.57705 208.919 9.40801 209.753 9.40517 210.841C9.40517 211.568 9.48045 212.183 9.63102 212.686C9.78443 213.186 10.0018 213.565 10.283 213.824C10.5643 214.079 10.9023 214.207 11.2972 214.207Z" fill="#9CA3AF"/>
<path d="M3.87784 266.145C3.20455 266.142 2.62926 265.964 2.15199 265.612C1.67472 265.26 1.30966 264.747 1.05682 264.074C0.803977 263.401 0.677557 262.589 0.677557 261.641C0.677557 260.695 0.803977 259.886 1.05682 259.216C1.3125 258.545 1.67898 258.034 2.15625 257.682C2.63636 257.33 3.21023 257.153 3.87784 257.153C4.54545 257.153 5.1179 257.331 5.59517 257.686C6.07244 258.038 6.4375 258.55 6.69034 259.22C6.94602 259.888 7.07386 260.695 7.07386 261.641C7.07386 262.592 6.94744 263.405 6.6946 264.078C6.44176 264.749 6.0767 265.261 5.59943 265.616C5.12216 265.969 4.5483 266.145 3.87784 266.145ZM3.87784 265.007C4.46875 265.007 4.9304 264.719 5.26278 264.142C5.59801 263.565 5.76562 262.732 5.76562 261.641C5.76562 260.916 5.68892 260.304 5.53551 259.804C5.38494 259.301 5.16761 258.92 4.88352 258.662C4.60227 258.401 4.26705 258.27 3.87784 258.27C3.28977 258.27 2.82813 258.56 2.4929 259.139C2.15767 259.719 1.98864 260.553 1.9858 261.641C1.9858 262.368 2.06108 262.983 2.21165 263.486C2.36506 263.986 2.58239 264.365 2.86364 264.624C3.14489 264.879 3.48295 265.007 3.87784 265.007Z" fill="#9CA3AF"/>
<rect x="32" y="53.2002" width="749" height="1" fill="#E5E7EB"/>
<rect x="32" y="107.4" width="749" height="1" fill="#E5E7EB"/>
<rect x="32" y="161.6" width="749" height="1" fill="#E5E7EB"/>
<rect x="32" y="215.8" width="749" height="1" fill="#E5E7EB"/>
<path d="M32 137L63.9686 164L95.5274 171L127.086 154.5L159.055 184L190.204 181.5L222.172 156.5L254.141 181L285.29 194L317.259 162L348.817 152L380.786 176.5L412.345 137L443.904 163.5L475.872 171L507.431 154.5L538.99 184L570.959 181L602.517 156L634.076 181L665.635 194L697.194 162L729.162 152L764 179" stroke="#064635" stroke-width="2"/>
<path d="M33.696 292H32.2983L35.4389 283.273H36.9602L40.1009 292H38.7031L36.2358 284.858H36.1676L33.696 292ZM33.9304 288.582H38.4645V289.69H33.9304V288.582ZM45.4652 289.286V285.455H46.7436V292H45.4908V290.866H45.4226C45.272 291.216 45.0305 291.507 44.6981 291.74C44.3686 291.97 43.9581 292.085 43.4666 292.085C43.0462 292.085 42.674 291.993 42.3501 291.808C42.0291 291.621 41.7763 291.344 41.5916 290.977C41.4098 290.611 41.3189 290.158 41.3189 289.618V285.455H42.593V289.464C42.593 289.911 42.7166 290.266 42.9638 290.53C43.2109 290.794 43.5319 290.926 43.9268 290.926C44.1655 290.926 44.4027 290.866 44.6385 290.747C44.8771 290.628 45.0746 290.447 45.2308 290.206C45.3899 289.964 45.468 289.658 45.4652 289.286ZM51.2599 294.591C50.74 294.591 50.2926 294.523 49.9176 294.386C49.5454 294.25 49.2414 294.07 49.0057 293.845C48.7699 293.621 48.5937 293.375 48.4772 293.108L49.5724 292.656C49.6491 292.781 49.7514 292.913 49.8792 293.053C50.0099 293.195 50.1861 293.315 50.4076 293.415C50.6321 293.514 50.9204 293.564 51.2727 293.564C51.7557 293.564 52.1548 293.446 52.4701 293.21C52.7855 292.977 52.9432 292.605 52.9432 292.094V290.807H52.8622C52.7855 290.946 52.6747 291.101 52.5298 291.271C52.3878 291.442 52.1917 291.589 51.9417 291.714C51.6917 291.839 51.3664 291.902 50.9659 291.902C50.4488 291.902 49.9829 291.781 49.5682 291.54C49.1562 291.295 48.8295 290.936 48.588 290.462C48.3494 289.984 48.2301 289.398 48.2301 288.702C48.2301 288.006 48.348 287.409 48.5838 286.912C48.8224 286.415 49.1491 286.034 49.5639 285.77C49.9787 285.503 50.4488 285.369 50.9744 285.369C51.3807 285.369 51.7088 285.438 51.9588 285.574C52.2088 285.707 52.4034 285.864 52.5426 286.043C52.6846 286.222 52.794 286.379 52.8707 286.516H52.9645V285.455H54.213V292.145C54.213 292.707 54.0824 293.169 53.821 293.53C53.5596 293.891 53.2059 294.158 52.7599 294.331C52.3167 294.504 51.8167 294.591 51.2599 294.591ZM51.2471 290.845C51.6136 290.845 51.9233 290.76 52.1761 290.589C52.4318 290.416 52.625 290.169 52.7557 289.848C52.8892 289.524 52.9559 289.136 52.9559 288.685C52.9559 288.244 52.8906 287.857 52.7599 287.521C52.6292 287.186 52.4375 286.925 52.1846 286.737C51.9318 286.547 51.6193 286.452 51.2471 286.452C50.8636 286.452 50.544 286.551 50.2883 286.75C50.0326 286.946 49.8395 287.213 49.7088 287.551C49.5809 287.889 49.517 288.267 49.517 288.685C49.517 289.114 49.5824 289.49 49.713 289.814C49.8437 290.138 50.0369 290.391 50.2926 290.572C50.5511 290.754 50.8693 290.845 51.2471 290.845ZM62.5117 283.273V292H61.1906V284.594H61.1395L59.0514 285.957V284.696L61.229 283.273H62.5117Z" fill="#9CA3AF"/>
<path d="M152.03 292H150.632L153.772 283.273H155.294L158.434 292H157.037L154.569 284.858H154.501L152.03 292ZM152.264 288.582H156.798V289.69H152.264V288.582ZM163.799 289.286V285.455H165.077V292H163.824V290.866H163.756C163.605 291.216 163.364 291.507 163.032 291.74C162.702 291.97 162.292 292.085 161.8 292.085C161.38 292.085 161.007 291.993 160.684 291.808C160.363 291.621 160.11 291.344 159.925 290.977C159.743 290.611 159.652 290.158 159.652 289.618V285.455H160.927V289.464C160.927 289.911 161.05 290.266 161.297 290.53C161.544 290.794 161.865 290.926 162.26 290.926C162.499 290.926 162.736 290.866 162.972 290.747C163.211 290.628 163.408 290.447 163.564 290.206C163.723 289.964 163.802 289.658 163.799 289.286ZM169.593 294.591C169.074 294.591 168.626 294.523 168.251 294.386C167.879 294.25 167.575 294.07 167.339 293.845C167.103 293.621 166.927 293.375 166.811 293.108L167.906 292.656C167.983 292.781 168.085 292.913 168.213 293.053C168.343 293.195 168.52 293.315 168.741 293.415C168.966 293.514 169.254 293.564 169.606 293.564C170.089 293.564 170.488 293.446 170.804 293.21C171.119 292.977 171.277 292.605 171.277 292.094V290.807H171.196C171.119 290.946 171.008 291.101 170.863 291.271C170.721 291.442 170.525 291.589 170.275 291.714C170.025 291.839 169.7 291.902 169.299 291.902C168.782 291.902 168.316 291.781 167.902 291.54C167.49 291.295 167.163 290.936 166.922 290.462C166.683 289.984 166.564 289.398 166.564 288.702C166.564 288.006 166.681 287.409 166.917 286.912C167.156 286.415 167.483 286.034 167.897 285.77C168.312 285.503 168.782 285.369 169.308 285.369C169.714 285.369 170.042 285.438 170.292 285.574C170.542 285.707 170.737 285.864 170.876 286.043C171.018 286.222 171.128 286.379 171.204 286.516H171.298V285.455H172.547V292.145C172.547 292.707 172.416 293.169 172.154 293.53C171.893 293.891 171.539 294.158 171.093 294.331C170.65 294.504 170.15 294.591 169.593 294.591ZM169.581 290.845C169.947 290.845 170.257 290.76 170.51 290.589C170.765 290.416 170.958 290.169 171.089 289.848C171.223 289.524 171.289 289.136 171.289 288.685C171.289 288.244 171.224 287.857 171.093 287.521C170.963 287.186 170.771 286.925 170.518 286.737C170.265 286.547 169.953 286.452 169.581 286.452C169.197 286.452 168.878 286.551 168.622 286.75C168.366 286.946 168.173 287.213 168.042 287.551C167.914 287.889 167.851 288.267 167.851 288.685C167.851 289.114 167.916 289.49 168.047 289.814C168.177 290.138 168.37 290.391 168.626 290.572C168.885 290.754 169.203 290.845 169.581 290.845ZM177.534 292V291.045L180.487 287.986C180.803 287.653 181.062 287.362 181.267 287.112C181.474 286.859 181.629 286.619 181.732 286.392C181.834 286.165 181.885 285.923 181.885 285.668C181.885 285.378 181.817 285.128 181.68 284.918C181.544 284.705 181.358 284.541 181.122 284.428C180.886 284.311 180.621 284.253 180.325 284.253C180.013 284.253 179.74 284.317 179.507 284.445C179.274 284.572 179.095 284.753 178.97 284.986C178.845 285.219 178.783 285.491 178.783 285.804H177.526C177.526 285.273 177.648 284.808 177.892 284.411C178.136 284.013 178.472 283.705 178.898 283.486C179.324 283.264 179.808 283.153 180.351 283.153C180.899 283.153 181.382 283.263 181.8 283.482C182.22 283.697 182.548 283.993 182.784 284.368C183.02 284.74 183.138 285.161 183.138 285.629C183.138 285.953 183.077 286.27 182.955 286.58C182.835 286.889 182.626 287.234 182.328 287.615C182.03 287.993 181.615 288.452 181.084 288.991L179.349 290.807V290.871H183.278V292H177.534Z" fill="#9CA3AF"/>
<path d="M270.363 292H268.965L272.105 283.273H273.627L276.767 292H275.37L272.902 284.858H272.834L270.363 292ZM270.597 288.582H275.131V289.69H270.597V288.582ZM282.132 289.286V285.455H283.41V292H282.157V290.866H282.089C281.939 291.216 281.697 291.507 281.365 291.74C281.035 291.97 280.625 292.085 280.133 292.085C279.713 292.085 279.34 291.993 279.017 291.808C278.696 291.621 278.443 291.344 278.258 290.977C278.076 290.611 277.985 290.158 277.985 289.618V285.455H279.26V289.464C279.26 289.911 279.383 290.266 279.63 290.53C279.877 290.794 280.198 290.926 280.593 290.926C280.832 290.926 281.069 290.866 281.305 290.747C281.544 290.628 281.741 290.447 281.897 290.206C282.056 289.964 282.135 289.658 282.132 289.286ZM287.926 294.591C287.407 294.591 286.959 294.523 286.584 294.386C286.212 294.25 285.908 294.07 285.672 293.845C285.436 293.621 285.26 293.375 285.144 293.108L286.239 292.656C286.316 292.781 286.418 292.913 286.546 293.053C286.676 293.195 286.853 293.315 287.074 293.415C287.299 293.514 287.587 293.564 287.939 293.564C288.422 293.564 288.821 293.446 289.137 293.21C289.452 292.977 289.61 292.605 289.61 292.094V290.807H289.529C289.452 290.946 289.341 291.101 289.196 291.271C289.054 291.442 288.858 291.589 288.608 291.714C288.358 291.839 288.033 291.902 287.632 291.902C287.115 291.902 286.649 291.781 286.235 291.54C285.823 291.295 285.496 290.936 285.255 290.462C285.016 289.984 284.897 289.398 284.897 288.702C284.897 288.006 285.014 287.409 285.25 286.912C285.489 286.415 285.816 286.034 286.23 285.77C286.645 285.503 287.115 285.369 287.641 285.369C288.047 285.369 288.375 285.438 288.625 285.574C288.875 285.707 289.07 285.864 289.209 286.043C289.351 286.222 289.461 286.379 289.537 286.516H289.631V285.455H290.88V292.145C290.88 292.707 290.749 293.169 290.487 293.53C290.226 293.891 289.872 294.158 289.426 294.331C288.983 294.504 288.483 294.591 287.926 294.591ZM287.914 290.845C288.28 290.845 288.59 290.76 288.843 290.589C289.098 290.416 289.291 290.169 289.422 289.848C289.556 289.524 289.622 289.136 289.622 288.685C289.622 288.244 289.557 287.857 289.426 287.521C289.296 287.186 289.104 286.925 288.851 286.737C288.598 286.547 288.286 286.452 287.914 286.452C287.53 286.452 287.211 286.551 286.955 286.75C286.699 286.946 286.506 287.213 286.375 287.551C286.247 287.889 286.184 288.267 286.184 288.685C286.184 289.114 286.249 289.49 286.38 289.814C286.51 290.138 286.703 290.391 286.959 290.572C287.218 290.754 287.536 290.845 287.914 290.845ZM298.905 292.119C298.32 292.119 297.797 292.018 297.337 291.817C296.88 291.615 296.518 291.335 296.251 290.977C295.986 290.616 295.844 290.199 295.824 289.724H297.163C297.18 289.983 297.266 290.207 297.422 290.398C297.582 290.585 297.789 290.73 298.045 290.832C298.3 290.935 298.584 290.986 298.897 290.986C299.241 290.986 299.545 290.926 299.809 290.807C300.076 290.687 300.285 290.521 300.435 290.308C300.586 290.092 300.661 289.844 300.661 289.562C300.661 289.27 300.586 289.013 300.435 288.791C300.288 288.567 300.07 288.391 299.783 288.263C299.499 288.135 299.155 288.071 298.752 288.071H298.015V286.997H298.752C299.076 286.997 299.36 286.939 299.604 286.822C299.851 286.706 300.045 286.544 300.184 286.337C300.323 286.126 300.393 285.881 300.393 285.599C300.393 285.33 300.332 285.095 300.209 284.896C300.09 284.695 299.92 284.537 299.698 284.423C299.479 284.31 299.221 284.253 298.922 284.253C298.638 284.253 298.373 284.305 298.126 284.411C297.881 284.513 297.682 284.661 297.529 284.854C297.376 285.044 297.293 285.273 297.282 285.54H296.008C296.022 285.068 296.161 284.653 296.425 284.295C296.692 283.937 297.045 283.658 297.482 283.456C297.92 283.254 298.405 283.153 298.94 283.153C299.499 283.153 299.982 283.263 300.388 283.482C300.797 283.697 301.113 283.986 301.334 284.347C301.559 284.707 301.67 285.102 301.667 285.531C301.67 286.02 301.533 286.435 301.258 286.776C300.985 287.116 300.621 287.345 300.167 287.462V287.53C300.746 287.618 301.195 287.848 301.513 288.22C301.834 288.592 301.994 289.054 301.991 289.605C301.994 290.085 301.86 290.516 301.59 290.896C301.323 291.277 300.958 291.577 300.495 291.795C300.032 292.011 299.502 292.119 298.905 292.119Z" fill="#9CA3AF"/>
<path d="M388.696 292H387.298L390.439 283.273H391.96L395.101 292H393.703L391.236 284.858H391.168L388.696 292ZM388.93 288.582H393.464V289.69H388.93V288.582ZM400.465 289.286V285.455H401.744V292H400.491V290.866H400.423C400.272 291.216 400.031 291.507 399.698 291.74C399.369 291.97 398.958 292.085 398.467 292.085C398.046 292.085 397.674 291.993 397.35 291.808C397.029 291.621 396.776 291.344 396.592 290.977C396.41 290.611 396.319 290.158 396.319 289.618V285.455H397.593V289.464C397.593 289.911 397.717 290.266 397.964 290.53C398.211 290.794 398.532 290.926 398.927 290.926C399.165 290.926 399.403 290.866 399.638 290.747C399.877 290.628 400.075 290.447 400.231 290.206C400.39 289.964 400.468 289.658 400.465 289.286ZM406.26 294.591C405.74 294.591 405.293 294.523 404.918 294.386C404.545 294.25 404.241 294.07 404.006 293.845C403.77 293.621 403.594 293.375 403.477 293.108L404.572 292.656C404.649 292.781 404.751 292.913 404.879 293.053C405.01 293.195 405.186 293.315 405.408 293.415C405.632 293.514 405.92 293.564 406.273 293.564C406.756 293.564 407.155 293.446 407.47 293.21C407.785 292.977 407.943 292.605 407.943 292.094V290.807H407.862C407.785 290.946 407.675 291.101 407.53 291.271C407.388 291.442 407.192 291.589 406.942 291.714C406.692 291.839 406.366 291.902 405.966 291.902C405.449 291.902 404.983 291.781 404.568 291.54C404.156 291.295 403.83 290.936 403.588 290.462C403.349 289.984 403.23 289.398 403.23 288.702C403.23 288.006 403.348 287.409 403.584 286.912C403.822 286.415 404.149 286.034 404.564 285.77C404.979 285.503 405.449 285.369 405.974 285.369C406.381 285.369 406.709 285.438 406.959 285.574C407.209 285.707 407.403 285.864 407.543 286.043C407.685 286.222 407.794 286.379 407.871 286.516H407.964V285.455H409.213V292.145C409.213 292.707 409.082 293.169 408.821 293.53C408.56 293.891 408.206 294.158 407.76 294.331C407.317 294.504 406.817 294.591 406.26 294.591ZM406.247 290.845C406.614 290.845 406.923 290.76 407.176 290.589C407.432 290.416 407.625 290.169 407.756 289.848C407.889 289.524 407.956 289.136 407.956 288.685C407.956 288.244 407.891 287.857 407.76 287.521C407.629 287.186 407.437 286.925 407.185 286.737C406.932 286.547 406.619 286.452 406.247 286.452C405.864 286.452 405.544 286.551 405.288 286.75C405.033 286.946 404.839 287.213 404.709 287.551C404.581 287.889 404.517 288.267 404.517 288.685C404.517 289.114 404.582 289.49 404.713 289.814C404.844 290.138 405.037 290.391 405.293 290.572C405.551 290.754 405.869 290.845 406.247 290.845ZM414.017 290.295V289.23L417.789 283.273H418.628V284.841H418.095L415.398 289.111V289.179H420.567V290.295H414.017ZM418.155 292V289.972L418.164 289.486V283.273H419.412V292H418.155Z" fill="#9CA3AF"/>
<path d="M507.03 292H505.632L508.772 283.273H510.294L513.434 292H512.037L509.569 284.858H509.501L507.03 292ZM507.264 288.582H511.798V289.69H507.264V288.582ZM518.799 289.286V285.455H520.077V292H518.824V290.866H518.756C518.605 291.216 518.364 291.507 518.032 291.74C517.702 291.97 517.292 292.085 516.8 292.085C516.38 292.085 516.007 291.993 515.684 291.808C515.363 291.621 515.11 291.344 514.925 290.977C514.743 290.611 514.652 290.158 514.652 289.618V285.455H515.927V289.464C515.927 289.911 516.05 290.266 516.297 290.53C516.544 290.794 516.865 290.926 517.26 290.926C517.499 290.926 517.736 290.866 517.972 290.747C518.211 290.628 518.408 290.447 518.564 290.206C518.723 289.964 518.802 289.658 518.799 289.286ZM524.593 294.591C524.074 294.591 523.626 294.523 523.251 294.386C522.879 294.25 522.575 294.07 522.339 293.845C522.103 293.621 521.927 293.375 521.811 293.108L522.906 292.656C522.983 292.781 523.085 292.913 523.213 293.053C523.343 293.195 523.52 293.315 523.741 293.415C523.966 293.514 524.254 293.564 524.606 293.564C525.089 293.564 525.488 293.446 525.804 293.21C526.119 292.977 526.277 292.605 526.277 292.094V290.807H526.196C526.119 290.946 526.008 291.101 525.863 291.271C525.721 291.442 525.525 291.589 525.275 291.714C525.025 291.839 524.7 291.902 524.299 291.902C523.782 291.902 523.316 291.781 522.902 291.54C522.49 291.295 522.163 290.936 521.922 290.462C521.683 289.984 521.564 289.398 521.564 288.702C521.564 288.006 521.681 287.409 521.917 286.912C522.156 286.415 522.483 286.034 522.897 285.77C523.312 285.503 523.782 285.369 524.308 285.369C524.714 285.369 525.042 285.438 525.292 285.574C525.542 285.707 525.737 285.864 525.876 286.043C526.018 286.222 526.128 286.379 526.204 286.516H526.298V285.455H527.547V292.145C527.547 292.707 527.416 293.169 527.154 293.53C526.893 293.891 526.539 294.158 526.093 294.331C525.65 294.504 525.15 294.591 524.593 294.591ZM524.581 290.845C524.947 290.845 525.257 290.76 525.51 290.589C525.765 290.416 525.958 290.169 526.089 289.848C526.223 289.524 526.289 289.136 526.289 288.685C526.289 288.244 526.224 287.857 526.093 287.521C525.963 287.186 525.771 286.925 525.518 286.737C525.265 286.547 524.953 286.452 524.581 286.452C524.197 286.452 523.878 286.551 523.622 286.75C523.366 286.946 523.173 287.213 523.042 287.551C522.914 287.889 522.851 288.267 522.851 288.685C522.851 289.114 522.916 289.49 523.047 289.814C523.177 290.138 523.37 290.391 523.626 290.572C523.885 290.754 524.203 290.845 524.581 290.845ZM535.415 292.119C534.881 292.119 534.401 292.017 533.974 291.812C533.551 291.605 533.213 291.321 532.96 290.96C532.707 290.599 532.572 290.188 532.555 289.724H533.834C533.865 290.099 534.031 290.408 534.332 290.649C534.634 290.891 534.994 291.011 535.415 291.011C535.75 291.011 536.047 290.935 536.305 290.781C536.567 290.625 536.771 290.411 536.919 290.138C537.07 289.865 537.145 289.554 537.145 289.205C537.145 288.849 537.068 288.533 536.915 288.254C536.761 287.976 536.55 287.757 536.28 287.598C536.013 287.439 535.706 287.358 535.359 287.355C535.095 287.355 534.83 287.401 534.562 287.491C534.295 287.582 534.08 287.702 533.915 287.849L532.709 287.67L533.199 283.273H537.997V284.402H534.294L534.017 286.844H534.068C534.239 286.679 534.464 286.541 534.746 286.43C535.03 286.32 535.334 286.264 535.658 286.264C536.189 286.264 536.662 286.391 537.077 286.643C537.494 286.896 537.822 287.241 538.061 287.679C538.303 288.114 538.422 288.614 538.419 289.179C538.422 289.744 538.294 290.249 538.035 290.692C537.78 291.135 537.425 291.484 536.97 291.74C536.518 291.993 536 292.119 535.415 292.119Z" fill="#9CA3AF"/>
<path d="M625.363 292H623.965L627.105 283.273H628.627L631.767 292H630.37L627.902 284.858H627.834L625.363 292ZM625.597 288.582H630.131V289.69H625.597V288.582ZM637.132 289.286V285.455H638.41V292H637.157V290.866H637.089C636.939 291.216 636.697 291.507 636.365 291.74C636.035 291.97 635.625 292.085 635.133 292.085C634.713 292.085 634.34 291.993 634.017 291.808C633.696 291.621 633.443 291.344 633.258 290.977C633.076 290.611 632.985 290.158 632.985 289.618V285.455H634.26V289.464C634.26 289.911 634.383 290.266 634.63 290.53C634.877 290.794 635.198 290.926 635.593 290.926C635.832 290.926 636.069 290.866 636.305 290.747C636.544 290.628 636.741 290.447 636.897 290.206C637.056 289.964 637.135 289.658 637.132 289.286ZM642.926 294.591C642.407 294.591 641.959 294.523 641.584 294.386C641.212 294.25 640.908 294.07 640.672 293.845C640.436 293.621 640.26 293.375 640.144 293.108L641.239 292.656C641.316 292.781 641.418 292.913 641.546 293.053C641.676 293.195 641.853 293.315 642.074 293.415C642.299 293.514 642.587 293.564 642.939 293.564C643.422 293.564 643.821 293.446 644.137 293.21C644.452 292.977 644.61 292.605 644.61 292.094V290.807H644.529C644.452 290.946 644.341 291.101 644.196 291.271C644.054 291.442 643.858 291.589 643.608 291.714C643.358 291.839 643.033 291.902 642.632 291.902C642.115 291.902 641.649 291.781 641.235 291.54C640.823 291.295 640.496 290.936 640.255 290.462C640.016 289.984 639.897 289.398 639.897 288.702C639.897 288.006 640.014 287.409 640.25 286.912C640.489 286.415 640.816 286.034 641.23 285.77C641.645 285.503 642.115 285.369 642.641 285.369C643.047 285.369 643.375 285.438 643.625 285.574C643.875 285.707 644.07 285.864 644.209 286.043C644.351 286.222 644.461 286.379 644.537 286.516H644.631V285.455H645.88V292.145C645.88 292.707 645.749 293.169 645.487 293.53C645.226 293.891 644.872 294.158 644.426 294.331C643.983 294.504 643.483 294.591 642.926 294.591ZM642.914 290.845C643.28 290.845 643.59 290.76 643.843 290.589C644.098 290.416 644.291 290.169 644.422 289.848C644.556 289.524 644.622 289.136 644.622 288.685C644.622 288.244 644.557 287.857 644.426 287.521C644.296 287.186 644.104 286.925 643.851 286.737C643.598 286.547 643.286 286.452 642.914 286.452C642.53 286.452 642.211 286.551 641.955 286.75C641.699 286.946 641.506 287.213 641.375 287.551C641.247 287.889 641.184 288.267 641.184 288.685C641.184 289.114 641.249 289.49 641.38 289.814C641.51 290.138 641.703 290.391 641.959 290.572C642.218 290.754 642.536 290.845 642.914 290.845ZM653.914 292.119C653.525 292.114 653.141 292.043 652.763 291.906C652.388 291.77 652.047 291.543 651.741 291.224C651.434 290.906 651.188 290.479 651.003 289.942C650.822 289.405 650.731 288.734 650.731 287.93C650.731 287.169 650.806 286.493 650.957 285.902C651.11 285.311 651.33 284.812 651.617 284.406C651.904 283.997 652.251 283.686 652.657 283.473C653.063 283.26 653.519 283.153 654.025 283.153C654.545 283.153 655.006 283.256 655.41 283.46C655.813 283.665 656.14 283.947 656.39 284.308C656.643 284.669 656.803 285.08 656.871 285.54H655.572C655.484 285.176 655.309 284.879 655.047 284.649C654.786 284.419 654.445 284.304 654.025 284.304C653.386 284.304 652.887 284.582 652.529 285.139C652.174 285.696 651.995 286.47 651.992 287.462H652.056C652.207 287.214 652.391 287.004 652.61 286.831C652.832 286.655 653.079 286.52 653.351 286.426C653.627 286.33 653.917 286.281 654.221 286.281C654.726 286.281 655.184 286.405 655.593 286.652C656.005 286.896 656.333 287.234 656.577 287.666C656.822 288.098 656.944 288.592 656.944 289.149C656.944 289.706 656.817 290.21 656.565 290.662C656.315 291.114 655.962 291.472 655.508 291.736C655.053 291.997 654.522 292.125 653.914 292.119ZM653.91 291.011C654.245 291.011 654.545 290.929 654.809 290.764C655.073 290.599 655.282 290.378 655.435 290.099C655.589 289.821 655.665 289.51 655.665 289.166C655.665 288.831 655.59 288.526 655.44 288.25C655.292 287.974 655.087 287.756 654.826 287.594C654.567 287.432 654.272 287.351 653.94 287.351C653.687 287.351 653.452 287.399 653.236 287.496C653.023 287.592 652.836 287.726 652.674 287.896C652.512 288.067 652.384 288.263 652.29 288.484C652.199 288.703 652.154 288.935 652.154 289.179C652.154 289.506 652.229 289.808 652.38 290.087C652.533 290.365 652.742 290.589 653.006 290.76C653.273 290.928 653.574 291.011 653.91 291.011Z" fill="#9CA3AF"/>
<path d="M743.696 292H742.298L745.439 283.273H746.96L750.101 292H748.703L746.236 284.858H746.168L743.696 292ZM743.93 288.582H748.464V289.69H743.93V288.582ZM755.465 289.286V285.455H756.744V292H755.491V290.866H755.423C755.272 291.216 755.031 291.507 754.698 291.74C754.369 291.97 753.958 292.085 753.467 292.085C753.046 292.085 752.674 291.993 752.35 291.808C752.029 291.621 751.776 291.344 751.592 290.977C751.41 290.611 751.319 290.158 751.319 289.618V285.455H752.593V289.464C752.593 289.911 752.717 290.266 752.964 290.53C753.211 290.794 753.532 290.926 753.927 290.926C754.165 290.926 754.403 290.866 754.638 290.747C754.877 290.628 755.075 290.447 755.231 290.206C755.39 289.964 755.468 289.658 755.465 289.286ZM761.26 294.591C760.74 294.591 760.293 294.523 759.918 294.386C759.545 294.25 759.241 294.07 759.006 293.845C758.77 293.621 758.594 293.375 758.477 293.108L759.572 292.656C759.649 292.781 759.751 292.913 759.879 293.053C760.01 293.195 760.186 293.315 760.408 293.415C760.632 293.514 760.92 293.564 761.273 293.564C761.756 293.564 762.155 293.446 762.47 293.21C762.785 292.977 762.943 292.605 762.943 292.094V290.807H762.862C762.785 290.946 762.675 291.101 762.53 291.271C762.388 291.442 762.192 291.589 761.942 291.714C761.692 291.839 761.366 291.902 760.966 291.902C760.449 291.902 759.983 291.781 759.568 291.54C759.156 291.295 758.83 290.936 758.588 290.462C758.349 289.984 758.23 289.398 758.23 288.702C758.23 288.006 758.348 287.409 758.584 286.912C758.822 286.415 759.149 286.034 759.564 285.77C759.979 285.503 760.449 285.369 760.974 285.369C761.381 285.369 761.709 285.438 761.959 285.574C762.209 285.707 762.403 285.864 762.543 286.043C762.685 286.222 762.794 286.379 762.871 286.516H762.964V285.455H764.213V292.145C764.213 292.707 764.082 293.169 763.821 293.53C763.56 293.891 763.206 294.158 762.76 294.331C762.317 294.504 761.817 294.591 761.26 294.591ZM761.247 290.845C761.614 290.845 761.923 290.76 762.176 290.589C762.432 290.416 762.625 290.169 762.756 289.848C762.889 289.524 762.956 289.136 762.956 288.685C762.956 288.244 762.891 287.857 762.76 287.521C762.629 287.186 762.437 286.925 762.185 286.737C761.932 286.547 761.619 286.452 761.247 286.452C760.864 286.452 760.544 286.551 760.288 286.75C760.033 286.946 759.839 287.213 759.709 287.551C759.581 287.889 759.517 288.267 759.517 288.685C759.517 289.114 759.582 289.49 759.713 289.814C759.844 290.138 760.037 290.391 760.293 290.572C760.551 290.754 760.869 290.845 761.247 290.845ZM769.495 292L773.304 284.466V284.402H768.898V283.273H774.668V284.44L770.871 292H769.495Z" fill="#9CA3AF"/>
</svg>
