<svg width="221" height="150" viewBox="0 0 221 150" fill="none" xmlns="http://www.w3.org/2000/svg">
<path opacity="0.2" d="M205.299 128.493L204.785 4.53438C204.775 2.06722 206.766 0.0522139 209.233 0.0337423C211.701 0.0152707 213.709 2.00033 213.719 4.46749L214.234 128.426L205.299 128.493Z" fill="#064635"/>
<path opacity="0.7" d="M201.75 146.493H199.057V137.766H201.869C202.716 137.766 203.44 137.941 204.043 138.29C204.645 138.637 205.107 139.135 205.428 139.786C205.749 140.434 205.909 141.209 205.909 142.112C205.909 143.022 205.747 143.804 205.423 144.46C205.099 145.114 204.628 145.617 204.009 145.969C203.389 146.318 202.636 146.493 201.75 146.493ZM200.114 145.556H201.682C202.403 145.556 203.001 145.416 203.476 145.138C203.95 144.86 204.304 144.463 204.537 143.949C204.77 143.435 204.886 142.823 204.886 142.112C204.886 141.408 204.771 140.801 204.541 140.293C204.311 139.782 203.967 139.389 203.51 139.117C203.053 138.841 202.483 138.703 201.801 138.703H200.114V145.556ZM210.29 146.63C209.659 146.63 209.115 146.49 208.658 146.212C208.203 145.931 207.852 145.539 207.605 145.036C207.361 144.53 207.239 143.942 207.239 143.272C207.239 142.601 207.361 142.01 207.605 141.499C207.852 140.985 208.196 140.584 208.636 140.297C209.08 140.007 209.597 139.862 210.188 139.862C210.528 139.862 210.865 139.919 211.197 140.033C211.53 140.147 211.832 140.331 212.105 140.587C212.378 140.84 212.595 141.175 212.757 141.593C212.919 142.01 213 142.524 213 143.135V143.561H207.955V142.692H211.977C211.977 142.323 211.903 141.993 211.756 141.703C211.611 141.414 211.403 141.185 211.134 141.017C210.866 140.85 210.551 140.766 210.188 140.766C209.787 140.766 209.44 140.865 209.148 141.064C208.858 141.26 208.635 141.516 208.479 141.831C208.322 142.147 208.244 142.485 208.244 142.845V143.425C208.244 143.919 208.33 144.338 208.5 144.682C208.673 145.023 208.913 145.283 209.22 145.462C209.527 145.638 209.884 145.726 210.29 145.726C210.554 145.726 210.793 145.689 211.006 145.615C211.222 145.539 211.408 145.425 211.564 145.274C211.72 145.121 211.841 144.931 211.926 144.703L212.898 144.976C212.795 145.306 212.624 145.595 212.382 145.845C212.141 146.093 211.842 146.286 211.487 146.425C211.132 146.561 210.733 146.63 210.29 146.63ZM217.189 146.63C216.575 146.63 216.047 146.485 215.604 146.195C215.161 145.905 214.82 145.506 214.581 144.997C214.342 144.489 214.223 143.908 214.223 143.255C214.223 142.59 214.345 142.003 214.589 141.495C214.837 140.983 215.18 140.584 215.621 140.297C216.064 140.007 216.581 139.862 217.172 139.862C217.632 139.862 218.047 139.948 218.416 140.118C218.786 140.289 219.088 140.527 219.324 140.834C219.56 141.141 219.706 141.499 219.763 141.908H218.757C218.68 141.61 218.51 141.345 218.246 141.115C217.984 140.882 217.632 140.766 217.189 140.766C216.797 140.766 216.453 140.868 216.158 141.073C215.865 141.274 215.636 141.56 215.472 141.929C215.31 142.296 215.229 142.726 215.229 143.22C215.229 143.726 215.308 144.166 215.467 144.541C215.629 144.916 215.857 145.208 216.149 145.415C216.445 145.622 216.791 145.726 217.189 145.726C217.45 145.726 217.688 145.681 217.901 145.59C218.114 145.499 218.294 145.368 218.442 145.198C218.589 145.027 218.695 144.823 218.757 144.584H219.763C219.706 144.97 219.565 145.318 219.341 145.628C219.119 145.935 218.825 146.179 218.459 146.361C218.095 146.54 217.672 146.63 217.189 146.63Z" fill="#6B7280"/>
<path opacity="0.2" d="M163.262 128.479L162.823 22.5345C162.812 20.0673 164.804 18.0523 167.271 18.0339C169.738 18.0154 171.746 20.0004 171.757 22.4676L172.196 128.413L163.262 128.479Z" fill="#064635"/>
<path opacity="0.7" d="M163.977 137.752V146.479H162.955L158.199 139.627H158.114V146.479H157.057V137.752H158.08L162.852 144.622H162.938V137.752H163.977ZM168.615 146.616C168.024 146.616 167.505 146.475 167.059 146.194C166.616 145.913 166.27 145.519 166.02 145.014C165.772 144.508 165.649 143.917 165.649 143.241C165.649 142.559 165.772 141.964 166.02 141.455C166.27 140.947 166.616 140.552 167.059 140.271C167.505 139.989 168.024 139.849 168.615 139.849C169.206 139.849 169.723 139.989 170.166 140.271C170.612 140.552 170.958 140.947 171.206 141.455C171.456 141.964 171.581 142.559 171.581 143.241C171.581 143.917 171.456 144.508 171.206 145.014C170.958 145.519 170.612 145.913 170.166 146.194C169.723 146.475 169.206 146.616 168.615 146.616ZM168.615 145.712C169.064 145.712 169.433 145.597 169.723 145.367C170.012 145.137 170.227 144.835 170.366 144.46C170.505 144.085 170.575 143.678 170.575 143.241C170.575 142.803 170.505 142.396 170.366 142.018C170.227 141.64 170.012 141.335 169.723 141.102C169.433 140.869 169.064 140.752 168.615 140.752C168.166 140.752 167.797 140.869 167.507 141.102C167.217 141.335 167.002 141.64 166.863 142.018C166.724 142.396 166.654 142.803 166.654 143.241C166.654 143.678 166.724 144.085 166.863 144.46C167.002 144.835 167.217 145.137 167.507 145.367C167.797 145.597 168.166 145.712 168.615 145.712ZM178.234 139.934L175.813 146.479H174.79L172.37 139.934H173.461L175.268 145.15H175.336L177.143 139.934H178.234Z" fill="#6B7280"/>
<path opacity="0.2" d="M124.188 128.736L123.897 58.5339C123.886 56.0667 125.878 54.0517 128.345 54.0332C130.812 54.0148 132.821 55.9998 132.831 58.467L133.122 128.669L124.188 128.736Z" fill="#064635"/>
<path opacity="0.7" d="M126.42 142.373C126.42 143.293 126.254 144.089 125.922 144.759C125.589 145.43 125.134 145.947 124.554 146.31C123.974 146.674 123.313 146.856 122.568 146.856C121.824 146.856 121.162 146.674 120.582 146.31C120.003 145.947 119.547 145.43 119.214 144.759C118.882 144.089 118.716 143.293 118.716 142.373C118.716 141.452 118.882 140.657 119.214 139.986C119.547 139.316 120.003 138.799 120.582 138.435C121.162 138.072 121.824 137.89 122.568 137.89C123.313 137.89 123.974 138.072 124.554 138.435C125.134 138.799 125.589 139.316 125.922 139.986C126.254 140.657 126.42 141.452 126.42 142.373ZM125.398 142.373C125.398 141.617 125.271 140.979 125.018 140.459C124.768 139.939 124.429 139.546 124 139.279C123.574 139.012 123.097 138.878 122.568 138.878C122.04 138.878 121.561 139.012 121.132 139.279C120.706 139.546 120.366 139.939 120.114 140.459C119.864 140.979 119.739 141.617 119.739 142.373C119.739 143.128 119.864 143.766 120.114 144.286C120.366 144.806 120.706 145.199 121.132 145.466C121.561 145.733 122.04 145.867 122.568 145.867C123.097 145.867 123.574 145.733 124 145.466C124.429 145.199 124.768 144.806 125.018 144.286C125.271 143.766 125.398 143.128 125.398 142.373ZM130.72 146.873C130.107 146.873 129.578 146.728 129.135 146.438C128.692 146.148 128.351 145.749 128.112 145.241C127.874 144.732 127.754 144.151 127.754 143.498C127.754 142.833 127.876 142.246 128.121 141.738C128.368 141.226 128.712 140.827 129.152 140.54C129.595 140.251 130.112 140.106 130.703 140.106C131.163 140.106 131.578 140.191 131.947 140.361C132.317 140.532 132.619 140.77 132.855 141.077C133.091 141.384 133.237 141.742 133.294 142.151H132.288C132.212 141.853 132.041 141.589 131.777 141.358C131.516 141.126 131.163 141.009 130.72 141.009C130.328 141.009 129.984 141.111 129.689 141.316C129.396 141.518 129.168 141.803 129.003 142.172C128.841 142.539 128.76 142.969 128.76 143.464C128.76 143.969 128.839 144.41 128.999 144.785C129.161 145.16 129.388 145.451 129.68 145.658C129.976 145.866 130.322 145.969 130.72 145.969C130.982 145.969 131.219 145.924 131.432 145.833C131.645 145.742 131.825 145.611 131.973 145.441C132.121 145.27 132.226 145.066 132.288 144.827H133.294C133.237 145.214 133.097 145.562 132.872 145.871C132.651 146.178 132.357 146.422 131.99 146.604C131.626 146.783 131.203 146.873 130.72 146.873ZM137.611 140.191V141.043H134.219V140.191H137.611ZM135.207 138.623H136.213V144.861C136.213 145.145 136.254 145.358 136.337 145.501C136.422 145.64 136.53 145.733 136.661 145.782C136.794 145.827 136.935 145.85 137.082 145.85C137.193 145.85 137.284 145.844 137.355 145.833C137.426 145.819 137.483 145.807 137.526 145.799L137.73 146.702C137.662 146.728 137.567 146.753 137.445 146.779C137.322 146.807 137.168 146.822 136.98 146.822C136.696 146.822 136.418 146.76 136.145 146.638C135.875 146.516 135.651 146.33 135.472 146.08C135.295 145.83 135.207 145.515 135.207 145.134V138.623Z" fill="#6B7280"/>
<path opacity="0.2" d="M84.7192 128.941L84.3648 43.534C84.3545 41.0669 86.3462 39.0519 88.8133 39.0334C91.2805 39.0149 93.2887 41 93.299 43.4671L93.6534 128.875L84.7192 128.941Z" fill="#064635"/>
<path opacity="0.7" d="M83.8295 140.396C83.7784 139.964 83.571 139.629 83.2074 139.39C82.8438 139.152 82.3977 139.032 81.8693 139.032C81.483 139.032 81.1449 139.095 80.8551 139.22C80.5682 139.345 80.3438 139.517 80.1818 139.735C80.0227 139.954 79.9432 140.203 79.9432 140.481C79.9432 140.714 79.9986 140.914 80.1094 141.082C80.223 141.247 80.3679 141.385 80.544 141.495C80.7202 141.603 80.9048 141.693 81.098 141.764C81.2912 141.832 81.4688 141.887 81.6307 141.93L82.517 142.169C82.7443 142.228 82.9972 142.311 83.2756 142.416C83.5568 142.521 83.8253 142.664 84.081 142.846C84.3395 143.025 84.5526 143.255 84.7202 143.537C84.8878 143.818 84.9716 144.163 84.9716 144.572C84.9716 145.044 84.848 145.47 84.6009 145.85C84.3565 146.231 83.9986 146.534 83.527 146.758C83.0582 146.983 82.4886 147.095 81.8182 147.095C81.1932 147.095 80.652 146.994 80.1946 146.792C79.7401 146.591 79.3821 146.309 79.1207 145.949C78.8622 145.588 78.7159 145.169 78.6818 144.691H79.7727C79.8011 145.021 79.9119 145.294 80.1051 145.51C80.3011 145.723 80.5483 145.882 80.8466 145.987C81.1477 146.089 81.4716 146.14 81.8182 146.14C82.2216 146.14 82.5838 146.075 82.9048 145.944C83.2259 145.811 83.4801 145.626 83.6676 145.39C83.8551 145.152 83.9489 144.873 83.9489 144.555C83.9489 144.265 83.8679 144.029 83.706 143.848C83.544 143.666 83.331 143.518 83.0668 143.404C82.8026 143.291 82.517 143.191 82.2102 143.106L81.1364 142.799C80.4545 142.603 79.9148 142.324 79.517 141.96C79.1193 141.596 78.9205 141.12 78.9205 140.532C78.9205 140.044 79.0526 139.618 79.3168 139.254C79.5838 138.887 79.9418 138.603 80.3906 138.402C80.8423 138.197 81.3466 138.095 81.9034 138.095C82.4659 138.095 82.9659 138.196 83.4034 138.397C83.8409 138.596 84.1875 138.869 84.4432 139.216C84.7017 139.562 84.8381 139.956 84.8523 140.396H83.8295ZM89.3171 147.078C88.6864 147.078 88.1424 146.939 87.685 146.66C87.2305 146.379 86.8796 145.987 86.6325 145.484C86.3881 144.978 86.266 144.39 86.266 143.72C86.266 143.049 86.3881 142.458 86.6325 141.947C86.8796 141.433 87.2234 141.032 87.6637 140.745C88.1069 140.456 88.6239 140.311 89.2148 140.311C89.5558 140.311 89.8924 140.368 90.2248 140.481C90.5572 140.595 90.8597 140.779 91.1325 141.035C91.4052 141.288 91.6225 141.623 91.7844 142.041C91.9464 142.458 92.0273 142.973 92.0273 143.583V144.01H86.9819V143.14H91.0046C91.0046 142.771 90.9308 142.441 90.783 142.152C90.6381 141.862 90.4308 141.633 90.1609 141.466C89.8938 141.298 89.5785 141.214 89.2148 141.214C88.8143 141.214 88.4677 141.314 88.1751 141.512C87.8853 141.708 87.6623 141.964 87.506 142.279C87.3498 142.595 87.2717 142.933 87.2717 143.294V143.873C87.2717 144.368 87.3569 144.787 87.5273 145.13C87.7006 145.471 87.9407 145.731 88.2475 145.91C88.5543 146.086 88.9109 146.174 89.3171 146.174C89.5813 146.174 89.82 146.137 90.033 146.064C90.2489 145.987 90.435 145.873 90.5913 145.723C90.7475 145.569 90.8683 145.379 90.9535 145.152L91.9251 145.424C91.8228 145.754 91.6509 146.044 91.4094 146.294C91.168 146.541 90.8697 146.734 90.5146 146.873C90.1594 147.01 89.7603 147.078 89.3171 147.078ZM93.5572 149.396V140.396H94.5288V141.436H94.6481C94.7219 141.322 94.8242 141.177 94.9549 141.001C95.0884 140.822 95.2788 140.663 95.5259 140.524C95.7759 140.382 96.114 140.311 96.5401 140.311C97.0913 140.311 97.5771 140.449 97.9975 140.724C98.418 141 98.7461 141.39 98.9819 141.896C99.2177 142.402 99.3356 142.998 99.3356 143.686C99.3356 144.379 99.2177 144.98 98.9819 145.488C98.7461 145.994 98.4194 146.386 98.0018 146.664C97.5842 146.94 97.1026 147.078 96.5572 147.078C96.1367 147.078 95.8001 147.008 95.5472 146.869C95.2944 146.727 95.0998 146.566 94.9634 146.387C94.8271 146.206 94.7219 146.055 94.6481 145.936H94.5629V149.396H93.5572ZM94.5458 143.669C94.5458 144.163 94.6183 144.599 94.7631 144.977C94.908 145.352 95.1197 145.646 95.3981 145.859C95.6765 146.069 96.0174 146.174 96.4208 146.174C96.8413 146.174 97.1921 146.064 97.4734 145.842C97.7575 145.618 97.9705 145.316 98.1126 144.939C98.2575 144.558 98.3299 144.135 98.3299 143.669C98.3299 143.208 98.2589 142.794 98.1168 142.424C97.9776 142.052 97.766 141.758 97.4819 141.542C97.2006 141.324 96.8469 141.214 96.4208 141.214C96.0117 141.214 95.668 141.318 95.3896 141.525C95.1112 141.73 94.9009 142.017 94.7589 142.386C94.6168 142.752 94.5458 143.18 94.5458 143.669Z" fill="#6B7280"/>
<path d="M46.1836 128.748L45.9005 60.5346C45.8902 58.0674 47.8819 56.0524 50.3491 56.0339C52.8162 56.0154 54.8245 58.0005 54.8347 60.4677L55.1178 128.681L46.1836 128.748Z" fill="#064635"/>
<path opacity="0.7" d="M40.4148 146.748H39.3068L42.5114 138.021H43.6023L46.8068 146.748H45.6989L43.0909 139.401H43.0227L40.4148 146.748ZM40.8239 143.339H45.2898V144.276H40.8239V143.339ZM52.1548 144.072V140.203H53.1605V146.748H52.1548V145.64H52.0866C51.9332 145.972 51.6946 146.255 51.3707 146.488C51.0469 146.718 50.6378 146.833 50.1435 146.833C49.7344 146.833 49.3707 146.744 49.0526 146.565C48.7344 146.383 48.4844 146.11 48.3026 145.747C48.1207 145.38 48.0298 144.919 48.0298 144.362V140.203H49.0355V144.294C49.0355 144.771 49.169 145.151 49.4361 145.436C49.706 145.72 50.0497 145.862 50.4673 145.862C50.7173 145.862 50.9716 145.798 51.2301 145.67C51.4915 145.542 51.7102 145.346 51.8864 145.082C52.0653 144.818 52.1548 144.481 52.1548 144.072ZM57.6445 149.339C57.1587 149.339 56.7411 149.276 56.3917 149.151C56.0423 149.029 55.7511 148.867 55.5181 148.666C55.288 148.467 55.1048 148.254 54.9684 148.026L55.7695 147.464C55.8604 147.583 55.9755 147.72 56.1147 147.873C56.2539 148.029 56.4442 148.164 56.6857 148.278C56.93 148.394 57.2496 148.453 57.6445 148.453C58.1729 148.453 58.609 148.325 58.9528 148.069C59.2965 147.813 59.4684 147.413 59.4684 146.867V145.538H59.3832C59.3093 145.657 59.2042 145.805 59.0678 145.981C58.9343 146.154 58.7411 146.309 58.4883 146.445C58.2383 146.579 57.9002 146.646 57.4741 146.646C56.9457 146.646 56.4712 146.521 56.0508 146.271C55.6332 146.021 55.3022 145.657 55.0579 145.18C54.8164 144.703 54.6957 144.123 54.6957 143.441C54.6957 142.771 54.8136 142.187 55.0494 141.69C55.2852 141.19 55.6133 140.803 56.0337 140.531C56.4542 140.255 56.94 140.117 57.4911 140.117C57.9173 140.117 58.2553 140.188 58.5053 140.33C58.7582 140.47 58.9513 140.629 59.0849 140.808C59.2212 140.984 59.3263 141.129 59.4002 141.242H59.5025V140.203H60.4741V146.936C60.4741 147.498 60.3462 147.955 60.0906 148.308C59.8377 148.663 59.4968 148.923 59.0678 149.088C58.6417 149.255 58.1673 149.339 57.6445 149.339ZM57.6104 145.742C58.0138 145.742 58.3548 145.65 58.6332 145.465C58.9116 145.281 59.1232 145.015 59.2681 144.669C59.413 144.322 59.4854 143.907 59.4854 143.424C59.4854 142.953 59.4144 142.536 59.2724 142.176C59.1303 141.815 58.9201 141.532 58.6417 141.328C58.3633 141.123 58.0195 141.021 57.6104 141.021C57.1843 141.021 56.8292 141.129 56.5451 141.345C56.2638 141.561 56.0522 141.85 55.9102 142.214C55.771 142.578 55.7013 142.981 55.7013 143.424C55.7013 143.879 55.7724 144.281 55.9144 144.63C56.0593 144.977 56.2724 145.249 56.5536 145.448C56.8377 145.644 57.19 145.742 57.6104 145.742Z" fill="#1F2937"/>
<rect x="31" y="30" width="36" height="21" rx="5" fill="#064635"/>
<path d="M41.72 44C41.6533 44 41.5967 43.98 41.55 43.94C41.51 43.8933 41.49 43.8367 41.49 43.77V43.45C41.49 43.39 41.5067 43.3233 41.54 43.25C41.5733 43.1767 41.64 43.0967 41.74 43.01L43.86 40.89C44.2 40.6033 44.4667 40.36 44.66 40.16C44.86 39.9533 45 39.7567 45.08 39.57C45.1667 39.3833 45.21 39.19 45.21 38.99C45.21 38.61 45.1033 38.31 44.89 38.09C44.6767 37.8633 44.36 37.75 43.94 37.75C43.6733 37.75 43.4433 37.8067 43.25 37.92C43.0567 38.0267 42.9033 38.1767 42.79 38.37C42.6833 38.5567 42.6133 38.77 42.58 39.01C42.5667 39.0967 42.53 39.1567 42.47 39.19C42.4167 39.2233 42.3667 39.24 42.32 39.24H41.8C41.74 39.24 41.69 39.2233 41.65 39.19C41.61 39.15 41.59 39.1033 41.59 39.05C41.5967 38.7967 41.65 38.5433 41.75 38.29C41.85 38.03 41.9967 37.7967 42.19 37.59C42.39 37.3833 42.6333 37.2167 42.92 37.09C43.2133 36.9567 43.5533 36.89 43.94 36.89C44.4667 36.89 44.8967 36.9867 45.23 37.18C45.57 37.3667 45.82 37.6167 45.98 37.93C46.14 38.2433 46.22 38.5867 46.22 38.96C46.22 39.2533 46.17 39.5233 46.07 39.77C45.97 40.01 45.8233 40.2467 45.63 40.48C45.4433 40.7067 45.21 40.94 44.93 41.18L43.01 43.13H46.13C46.2033 43.13 46.26 43.15 46.3 43.19C46.3467 43.23 46.37 43.2867 46.37 43.36V43.77C46.37 43.8367 46.3467 43.8933 46.3 43.94C46.26 43.98 46.2033 44 46.13 44H41.72ZM49.6291 44C49.5625 44 49.5058 43.98 49.4591 43.94C49.4191 43.8933 49.3991 43.8367 49.3991 43.77V38.17L47.7391 39.45C47.6858 39.49 47.6291 39.5067 47.5691 39.5C47.5091 39.4933 47.4591 39.4633 47.4191 39.41L47.1591 39.08C47.1191 39.02 47.1025 38.96 47.1091 38.9C47.1225 38.84 47.1558 38.79 47.2091 38.75L49.3891 37.07C49.4358 37.0367 49.4791 37.0167 49.5191 37.01C49.5591 37.0033 49.6025 37 49.6491 37H50.1591C50.2258 37 50.2791 37.0233 50.3191 37.07C50.3591 37.11 50.3791 37.1633 50.3791 37.23V43.77C50.3791 43.8367 50.3591 43.8933 50.3191 43.94C50.2791 43.98 50.2258 44 50.1591 44H49.6291ZM51.8665 44C51.7998 44 51.7432 43.98 51.6965 43.94C51.6565 43.8933 51.6365 43.8367 51.6365 43.77V43.45C51.6365 43.39 51.6532 43.3233 51.6865 43.25C51.7198 43.1767 51.7865 43.0967 51.8865 43.01L54.0065 40.89C54.3465 40.6033 54.6132 40.36 54.8065 40.16C55.0065 39.9533 55.1465 39.7567 55.2265 39.57C55.3132 39.3833 55.3565 39.19 55.3565 38.99C55.3565 38.61 55.2498 38.31 55.0365 38.09C54.8232 37.8633 54.5065 37.75 54.0865 37.75C53.8198 37.75 53.5898 37.8067 53.3965 37.92C53.2032 38.0267 53.0498 38.1767 52.9365 38.37C52.8298 38.5567 52.7598 38.77 52.7265 39.01C52.7132 39.0967 52.6765 39.1567 52.6165 39.19C52.5632 39.2233 52.5132 39.24 52.4665 39.24H51.9465C51.8865 39.24 51.8365 39.2233 51.7965 39.19C51.7565 39.15 51.7365 39.1033 51.7365 39.05C51.7432 38.7967 51.7965 38.5433 51.8965 38.29C51.9965 38.03 52.1432 37.7967 52.3365 37.59C52.5365 37.3833 52.7798 37.2167 53.0665 37.09C53.3598 36.9567 53.6998 36.89 54.0865 36.89C54.6132 36.89 55.0432 36.9867 55.3765 37.18C55.7165 37.3667 55.9665 37.6167 56.1265 37.93C56.2865 38.2433 56.3665 38.5867 56.3665 38.96C56.3665 39.2533 56.3165 39.5233 56.2165 39.77C56.1165 40.01 55.9698 40.2467 55.7765 40.48C55.5898 40.7067 55.3565 40.94 55.0765 41.18L53.1565 43.13H56.2765C56.3498 43.13 56.4065 43.15 56.4465 43.19C56.4932 43.23 56.5165 43.2867 56.5165 43.36V43.77C56.5165 43.8367 56.4932 43.8933 56.4465 43.94C56.4065 43.98 56.3498 44 56.2765 44H51.8665Z" fill="white"/>
<path d="M49.0794 55L55.2378 49H42.921L49.0794 55Z" fill="#064635"/>
<path opacity="0.2" d="M4.45117 128.396L4.26838 84.5339C4.2581 82.0667 6.24976 80.0518 8.71687 80.0334C11.184 80.015 13.1923 82.0001 13.2026 84.4673L13.3854 128.33L4.45117 128.396Z" fill="#064635"/>
<path opacity="0.7" d="M4.71511 137.669H5.77193V143.908C5.77193 144.465 5.66966 144.938 5.46511 145.327C5.26056 145.716 4.97221 146.012 4.60005 146.213C4.22789 146.415 3.78897 146.516 3.28329 146.516C2.80602 146.516 2.3813 146.429 2.00914 146.256C1.63699 146.08 1.34437 145.83 1.1313 145.506C0.918235 145.182 0.811701 144.797 0.811701 144.351H1.85147C1.85147 144.598 1.91255 144.814 2.03471 144.999C2.15971 145.181 2.33017 145.323 2.54608 145.425C2.76199 145.527 3.00772 145.578 3.28329 145.578C3.58727 145.578 3.84579 145.514 4.05886 145.387C4.27193 145.259 4.43386 145.071 4.54466 144.824C4.65829 144.574 4.71511 144.269 4.71511 143.908V137.669ZM11.8785 143.72V139.851H12.8841V146.396H11.8785V145.289H11.8103C11.6569 145.621 11.4182 145.904 11.0944 146.137C10.7705 146.367 10.3614 146.482 9.8671 146.482C9.45801 146.482 9.09437 146.392 8.77619 146.213C8.45801 146.031 8.20801 145.759 8.02619 145.395C7.84437 145.029 7.75346 144.567 7.75346 144.01V139.851H8.75914V143.942C8.75914 144.419 8.89267 144.8 9.15971 145.084C9.4296 145.368 9.77335 145.51 10.191 145.51C10.441 145.51 10.6952 145.446 10.9537 145.318C11.2151 145.191 11.4339 144.994 11.61 144.73C11.789 144.466 11.8785 144.129 11.8785 143.72ZM15.7318 137.669V146.396H14.7261V137.669H15.7318Z" fill="#6B7280"/>
</svg>
