<svg width="40" height="40" viewBox="0 0 40 40" fill="none" xmlns="http://www.w3.org/2000/svg">
<rect width="40" height="40" rx="20" fill="white"/>
<path d="M21.2581 7C22.6589 7 23.9256 7.18768 25.0584 7.56304C26.1911 7.9384 27.112 8.44722 27.821 9.08951C28.53 9.72345 29.0705 10.445 29.4423 11.2541C29.8141 12.0549 30 12.9015 30 13.794C30 14.6282 29.8314 15.4414 29.4942 16.2339C29.1656 17.018 28.677 17.752 28.0285 18.436C27.3887 19.1116 26.5456 19.6997 25.4994 20.2002C24.4617 20.6923 23.2858 21.0343 21.9715 21.2262C21.9369 22.102 21.9153 22.6609 21.9066 22.9028C21.8634 23.8787 21.8418 24.5419 21.8418 24.8922C21.8245 25.6096 21.725 26.3394 21.5435 27.0818C21.3705 27.8242 21.1111 28.5541 20.7652 29.2714C20.4194 29.9804 20.0086 30.6102 19.5331 31.1607C19.0661 31.7113 18.4955 32.1534 17.821 32.487C17.1466 32.829 16.4246 33 15.655 33C14.8422 33 14.1029 32.7456 13.4371 32.2368C12.7713 31.7279 12.2309 31.0731 11.8158 30.2724C11.4008 29.4716 11.0506 28.5499 10.7652 27.5072C10.4885 26.4645 10.2897 25.4427 10.1686 24.4418C10.0562 23.4325 10 22.4398 10 21.4639C10 19.8957 10.1773 18.3859 10.5318 16.9346C10.8863 15.4748 11.3965 14.1485 12.0623 12.9557C12.7367 11.7546 13.5279 10.7077 14.4358 9.81521C15.3437 8.92268 16.3813 8.23035 17.5486 7.73821C18.7246 7.24607 19.9611 7 21.2581 7ZM13.476 21.1386C13.476 24.2082 13.6749 26.4479 14.0726 27.8576C14.4877 29.334 15.1102 30.0722 15.9403 30.0722C16.3035 30.0722 16.6321 29.9596 16.9261 29.7344C17.2201 29.5091 17.4622 29.2214 17.6524 28.871C17.8426 28.5207 18.0069 28.0953 18.1453 27.5948C18.2923 27.086 18.4003 26.598 18.4695 26.1309C18.5473 25.6554 18.6079 25.1341 18.6511 24.5669C18.703 23.9913 18.7332 23.5159 18.7419 23.1405C18.7505 22.7652 18.7549 22.3731 18.7549 21.9644V21.3763C17.8037 21.0093 17.1077 20.6923 16.6667 20.4254C16.2257 20.1585 15.9447 19.9082 15.8236 19.6747C15.7112 19.4411 15.655 19.1158 15.655 18.6987C15.655 18.4485 15.6636 18.2483 15.6809 18.0982C15.6982 17.948 15.7501 17.8104 15.8366 17.6853C15.923 17.5518 16.0484 17.4851 16.2127 17.4851C16.3165 17.4851 16.4894 17.5476 16.7315 17.6728C17.1898 17.9147 17.6481 18.1149 18.1064 18.2733C18.3139 18.3401 18.4868 18.3901 18.6252 18.4235C18.6252 15.3622 19.3083 13.5563 20.6744 13.0058C20.9425 12.8973 21.2408 12.8431 21.5694 12.8431C21.9498 12.8431 22.2784 12.9224 22.5551 13.0808C22.8318 13.2393 22.9702 13.5063 22.9702 13.8816C22.9702 13.9233 22.9658 13.965 22.9572 14.0067C22.9572 14.0401 22.9572 14.0651 22.9572 14.0818L22.166 17.2974L22.0493 18.2859C23.6576 18.044 24.8768 17.5351 25.7069 16.7594C26.537 15.9836 26.952 15.0911 26.952 14.0818C26.952 13.6898 26.8958 13.3102 26.7834 12.9432C26.671 12.5679 26.4678 12.1967 26.1738 11.8296C25.8885 11.4543 25.5253 11.1331 25.0843 10.8662C24.652 10.591 24.0813 10.3699 23.3722 10.2031C22.6632 10.0279 21.8591 9.94033 20.9598 9.94033C19.9481 9.94033 19.0186 10.1697 18.1712 10.6285C17.3325 11.0873 16.6278 11.692 16.0571 12.4427C15.4864 13.1851 15.0022 14.0484 14.6044 15.0327C14.2067 16.017 13.917 17.0221 13.7354 18.0481C13.5625 19.0741 13.476 20.1043 13.476 21.1386Z" fill="#064635"/>
<path d="M38.5 19.9998C38.5 30.2169 30.2173 38.4996 20 38.4996C9.78272 38.4996 1.5 30.2169 1.5 19.9998C1.5 9.78265 9.78272 1.5 20 1.5C30.2173 1.5 38.5 9.78265 38.5 19.9998Z" stroke="#064635" stroke-width="3"/>
</svg>
